# Blender v3.2.2 OBJ File: ''
# www.blender.org
mtllib Beam.mtl
o 円柱
v 0.000000 1.000000 -0.615290
v 0.000000 1.000000 13.834877
v 0.195090 0.980786 -0.615290
v 0.195090 0.980785 13.834877
v 0.382683 0.923880 -0.615290
v 0.382683 0.923879 13.834877
v 0.555570 0.831470 -0.615290
v 0.555570 0.831469 13.834877
v 0.707107 0.707107 -0.615290
v 0.707107 0.707106 13.834877
v 0.831470 0.555571 -0.615290
v 0.831470 0.555570 13.834877
v 0.923880 0.382684 -0.615290
v 0.923880 0.382683 13.834877
v 0.980785 0.195091 -0.615290
v 0.980785 0.195090 13.834877
v 1.000000 0.000000 -0.615290
v 1.000000 -0.000000 13.834877
v 0.980785 -0.195090 -0.615290
v 0.980785 -0.195091 13.834877
v 0.923880 -0.382683 -0.615290
v 0.923880 -0.382684 13.834877
v 0.831470 -0.555570 -0.615290
v 0.831470 -0.555570 13.834877
v 0.707107 -0.707106 -0.615290
v 0.707107 -0.707107 13.834877
v 0.555570 -0.831469 -0.615290
v 0.555570 -0.831470 13.834877
v 0.382683 -0.923879 -0.615290
v 0.382683 -0.923880 13.834877
v 0.195090 -0.980785 -0.615290
v 0.195090 -0.980786 13.834877
v -0.000000 -1.000000 -0.615290
v -0.000000 -1.000000 13.834877
v -0.195090 -0.980785 -0.615290
v -0.195090 -0.980786 13.834877
v -0.382683 -0.923879 -0.615290
v -0.382683 -0.923880 13.834877
v -0.555570 -0.831469 -0.615290
v -0.555570 -0.831470 13.834877
v -0.707107 -0.707107 -0.615290
v -0.707107 -0.707107 13.834877
v -0.831469 -0.555570 -0.615290
v -0.831469 -0.555571 13.834877
v -0.923880 -0.382683 -0.615290
v -0.923880 -0.382684 13.834877
v -0.980785 -0.195090 -0.615290
v -0.980785 -0.195091 13.834877
v -1.000000 0.000000 -0.615290
v -1.000000 -0.000000 13.834877
v -0.980785 0.195091 -0.615290
v -0.980785 0.195090 13.834877
v -0.923879 0.382684 -0.615290
v -0.923879 0.382683 13.834877
v -0.831470 0.555570 -0.615290
v -0.831470 0.555570 13.834877
v -0.707107 0.707107 -0.615290
v -0.707107 0.707106 13.834877
v -0.555570 0.831470 -0.615290
v -0.555570 0.831469 13.834877
v -0.382683 0.923880 -0.615290
v -0.382683 0.923879 13.834877
v -0.195090 0.980786 -0.615290
v -0.195090 0.980785 13.834877
vt 0.968750 0.500000
vt 0.968750 1.000000
vt 0.937500 1.000000
vt 0.937500 0.500000
vt 0.906250 1.000000
vt 0.906250 0.500000
vt 0.875000 1.000000
vt 0.875000 0.500000
vt 0.843750 1.000000
vt 0.843750 0.500000
vt 0.812500 1.000000
vt 0.812500 0.500000
vt 0.781250 1.000000
vt 0.781250 0.500000
vt 0.750000 0.500000
vt 0.750000 1.000000
vt 0.718750 1.000000
vt 0.718750 0.500000
vt 0.687500 1.000000
vt 0.687500 0.500000
vt 0.656250 1.000000
vt 0.656250 0.500000
vt 0.625000 1.000000
vt 0.625000 0.500000
vt 0.593750 1.000000
vt 0.593750 0.500000
vt 0.562500 1.000000
vt 0.562500 0.500000
vt 0.531250 1.000000
vt 0.531250 0.500000
vt 0.500000 1.000000
vt 0.500000 0.500000
vt 0.468750 0.500000
vt 0.468750 1.000000
vt 0.437500 1.000000
vt 0.437500 0.500000
vt 0.406250 1.000000
vt 0.406250 0.500000
vt 0.375000 1.000000
vt 0.375000 0.500000
vt 0.343750 1.000000
vt 0.343750 0.500000
vt 0.312500 1.000000
vt 0.312500 0.500000
vt 0.281250 1.000000
vt 0.281250 0.500000
vt 0.250000 1.000000
vt 0.250000 0.500000
vt 0.218750 0.500000
vt 0.218750 1.000000
vt 0.187500 1.000000
vt 0.187500 0.500000
vt 0.156250 1.000000
vt 0.156250 0.500000
vt 0.125000 1.000000
vt 0.125000 0.500000
vt 0.093750 1.000000
vt 0.093750 0.500000
vt 0.062500 1.000000
vt 0.062500 0.500000
vt 0.296822 0.485388
vt 0.250000 0.490000
vt 0.203178 0.485388
vt 0.158156 0.471731
vt 0.116663 0.449553
vt 0.080294 0.419706
vt 0.050447 0.383337
vt 0.028269 0.341844
vt 0.014612 0.296822
vt 0.010000 0.250000
vt 0.014612 0.203178
vt 0.028269 0.158156
vt 0.050447 0.116663
vt 0.080294 0.080294
vt 0.116663 0.050447
vt 0.158156 0.028269
vt 0.203178 0.014612
vt 0.250000 0.010000
vt 0.296822 0.014612
vt 0.341844 0.028269
vt 0.383337 0.050447
vt 0.419706 0.080294
vt 0.449553 0.116663
vt 0.471731 0.158156
vt 0.485388 0.203178
vt 0.490000 0.250000
vt 0.485388 0.296822
vt 0.471731 0.341844
vt 0.449553 0.383337
vt 0.419706 0.419706
vt 0.383337 0.449553
vt 0.341844 0.471731
vt 0.031250 1.000000
vt 0.031250 0.500000
vt 0.000000 1.000000
vt 0.000000 0.500000
vt 0.750000 0.490000
vt 0.796822 0.485388
vt 0.841844 0.471731
vt 0.883337 0.449553
vt 0.919706 0.419706
vt 0.949553 0.383337
vt 0.971731 0.341844
vt 0.985388 0.296822
vt 0.990000 0.250000
vt 0.985388 0.203178
vt 0.971731 0.158156
vt 0.949553 0.116663
vt 0.919706 0.080294
vt 0.883337 0.050447
vt 0.841844 0.028269
vt 0.796822 0.014612
vt 0.750000 0.010000
vt 0.703178 0.014612
vt 0.658156 0.028269
vt 0.616663 0.050447
vt 0.580294 0.080294
vt 0.550447 0.116663
vt 0.528269 0.158156
vt 0.514612 0.203178
vt 0.510000 0.250000
vt 0.514612 0.296822
vt 0.528269 0.341844
vt 0.550447 0.383337
vt 0.580294 0.419706
vt 0.616663 0.449553
vt 0.658156 0.471731
vt 0.703178 0.485388
vt 1.000000 0.500000
vt 1.000000 1.000000
vn 0.2903 0.9569 0.0000
vn 0.4714 0.8819 0.0000
vn 0.6344 0.7730 0.0000
vn 0.7730 0.6344 0.0000
vn 0.8819 0.4714 0.0000
vn 0.9569 0.2903 0.0000
vn 0.9952 -0.0980 -0.0000
vn 0.9569 -0.2903 -0.0000
vn 0.8819 -0.4714 -0.0000
vn 0.7730 -0.6344 -0.0000
vn 0.6344 -0.7730 -0.0000
vn 0.4714 -0.8819 -0.0000
vn 0.2903 -0.9569 -0.0000
vn 0.0980 -0.9952 -0.0000
vn -0.2903 -0.9569 -0.0000
vn -0.4714 -0.8819 -0.0000
vn -0.6344 -0.7730 -0.0000
vn -0.7730 -0.6344 -0.0000
vn -0.8819 -0.4714 -0.0000
vn -0.9569 -0.2903 -0.0000
vn -0.9952 -0.0980 -0.0000
vn -0.9569 0.2903 0.0000
vn -0.8819 0.4714 0.0000
vn -0.7730 0.6344 0.0000
vn -0.6344 0.7730 0.0000
vn -0.4714 0.8819 0.0000
vn 0.0000 0.0000 1.0000
vn -0.2903 0.9569 0.0000
vn -0.0980 0.9952 0.0000
vn -0.0000 0.0000 -1.0000
vn 0.0980 0.9952 0.0000
vn 0.9952 0.0980 0.0000
vn -0.0980 -0.9952 -0.0000
vn -0.9952 0.0980 0.0000
usemtl マテリアル
s off
f 3/1/1 4/2/1 6/3/1 5/4/1
f 5/4/2 6/3/2 8/5/2 7/6/2
f 7/6/3 8/5/3 10/7/3 9/8/3
f 9/8/4 10/7/4 12/9/4 11/10/4
f 11/10/5 12/9/5 14/11/5 13/12/5
f 13/12/6 14/11/6 16/13/6 15/14/6
f 17/15/7 18/16/7 20/17/7 19/18/7
f 19/18/8 20/17/8 22/19/8 21/20/8
f 21/20/9 22/19/9 24/21/9 23/22/9
f 23/22/10 24/21/10 26/23/10 25/24/10
f 25/24/11 26/23/11 28/25/11 27/26/11
f 27/26/12 28/25/12 30/27/12 29/28/12
f 29/28/13 30/27/13 32/29/13 31/30/13
f 31/30/14 32/29/14 34/31/14 33/32/14
f 35/33/15 36/34/15 38/35/15 37/36/15
f 37/36/16 38/35/16 40/37/16 39/38/16
f 39/38/17 40/37/17 42/39/17 41/40/17
f 41/40/18 42/39/18 44/41/18 43/42/18
f 43/42/19 44/41/19 46/43/19 45/44/19
f 45/44/20 46/43/20 48/45/20 47/46/20
f 47/46/21 48/45/21 50/47/21 49/48/21
f 51/49/22 52/50/22 54/51/22 53/52/22
f 53/52/23 54/51/23 56/53/23 55/54/23
f 55/54/24 56/53/24 58/55/24 57/56/24
f 57/56/25 58/55/25 60/57/25 59/58/25
f 59/58/26 60/57/26 62/59/26 61/60/26
f 4/61/27 2/62/27 64/63/27 62/64/27 60/65/27 58/66/27 56/67/27 54/68/27 52/69/27 50/70/27 48/71/27 46/72/27 44/73/27 42/74/27 40/75/27 38/76/27 36/77/27 34/78/27 32/79/27 30/80/27 28/81/27 26/82/27 24/83/27 22/84/27 20/85/27 18/86/27 16/87/27 14/88/27 12/89/27 10/90/27 8/91/27 6/92/27
f 61/60/28 62/59/28 64/93/28 63/94/28
f 63/94/29 64/93/29 2/95/29 1/96/29
f 1/97/30 3/98/30 5/99/30 7/100/30 9/101/30 11/102/30 13/103/30 15/104/30 17/105/30 19/106/30 21/107/30 23/108/30 25/109/30 27/110/30 29/111/30 31/112/30 33/113/30 35/114/30 37/115/30 39/116/30 41/117/30 43/118/30 45/119/30 47/120/30 49/121/30 51/122/30 53/123/30 55/124/30 57/125/30 59/126/30 61/127/30 63/128/30
usemtl マテリアル.001
f 1/129/31 2/130/31 4/2/31 3/1/31
f 15/14/32 16/13/32 18/16/32 17/15/32
f 33/32/33 34/31/33 36/34/33 35/33/33
f 49/48/34 50/47/34 52/50/34 51/49/34
